<svg width="143" height="143" viewBox="0 0 143 143" fill="none" xmlns="http://www.w3.org/2000/svg">
<path fill-rule="evenodd" clip-rule="evenodd" d="M113.804 114.162C117.32 108.799 118.63 106.058 121.312 100.04C101.53 92.5329 98.3721 64.3499 117.915 53.5653C111.957 46.0578 103.556 41.7083 95.6313 41.7083C89.9113 41.7083 85.9787 43.1979 82.4633 44.5683C79.4841 45.7004 76.8029 46.7132 73.4663 46.7132C69.8913 46.7132 66.7333 45.5812 63.3967 44.3896C59.7621 43.0787 55.9487 41.7083 51.1821 41.7083C42.3041 41.7083 32.8304 47.1303 26.8125 56.4253C18.3517 69.5337 19.8413 94.082 33.4858 115.055C38.3717 122.563 44.9258 130.964 53.4463 131.083C57.0213 131.143 59.345 130.07 61.9071 128.938C64.8267 127.628 67.9846 126.197 73.5258 126.197C79.0671 126.138 82.1654 127.628 85.085 128.938C87.5875 130.07 89.8517 131.143 93.3671 131.083C102.007 130.964 108.918 121.669 113.804 114.162Z" fill="#EE3536"/>
<path fill-rule="evenodd" clip-rule="evenodd" d="M94.38 11.9167C95.3333 18.4709 92.6521 24.9656 89.1367 29.4939C85.3829 34.3797 78.8287 38.193 72.5129 37.9546C71.3808 31.6388 74.3004 25.1442 77.8754 20.7946C81.8675 16.0279 88.6004 12.3338 94.38 11.9167Z" fill="#EE3536"/>
<path fill-rule="evenodd" clip-rule="evenodd" d="M58.625 82.4335V78.6667C58.625 71.8322 64.1655 66.2917 71 66.2917C77.8345 66.2917 83.375 71.8322 83.375 78.6667V82.4335C85.4187 82.5862 86.7496 82.9715 87.7224 83.9443C89.3333 85.5552 89.3333 88.148 89.3333 93.3334C89.3333 98.5189 89.3333 101.112 87.7224 102.722C86.1115 104.333 83.5188 104.333 78.3333 104.333H63.6667C58.4812 104.333 55.8885 104.333 54.2776 102.722C52.6667 101.112 52.6667 98.5189 52.6667 93.3334C52.6667 88.148 52.6667 85.5552 54.2776 83.9443C55.2504 82.9715 56.5813 82.5862 58.625 82.4335ZM61.375 78.6667C61.375 73.351 65.6842 69.0417 71 69.0417C76.3157 69.0417 80.625 73.351 80.625 78.6667V82.34C79.9228 82.3334 79.1611 82.3334 78.3333 82.3334H63.6667C62.8389 82.3334 62.0772 82.3334 61.375 82.34V78.6667ZM63.6667 95.1667C64.6792 95.1667 65.5 94.3459 65.5 93.3334C65.5 92.3209 64.6792 91.5001 63.6667 91.5001C62.6541 91.5001 61.8333 92.3209 61.8333 93.3334C61.8333 94.3459 62.6541 95.1667 63.6667 95.1667ZM71 95.1667C72.0125 95.1667 72.8333 94.3459 72.8333 93.3334C72.8333 92.3209 72.0125 91.5001 71 91.5001C69.9875 91.5001 69.1667 92.3209 69.1667 93.3334C69.1667 94.3459 69.9875 95.1667 71 95.1667ZM80.1667 93.3334C80.1667 94.3459 79.3458 95.1667 78.3333 95.1667C77.3208 95.1667 76.5 94.3459 76.5 93.3334C76.5 92.3209 77.3208 91.5001 78.3333 91.5001C79.3458 91.5001 80.1667 92.3209 80.1667 93.3334Z" fill="#1F1F1F"/>
</svg>
